Coordinates
version=1
nRows=23
nColumns=38
inDegrees=no

Units are S.I. units (second, meters, Newtons, ...)
If the header above contains a line with 'inDegrees', this indicates whether rotational values are in degrees (yes) or radians (no).

endheader
time	pelvis_tilt	pelvis_list	pelvis_rotation	pelvis_tx	pelvis_ty	pelvis_tz	hip_flexion_r	hip_adduction_r	hip_rotation_r	knee_angle_r	ankle_angle_r	subtalar_angle_r	mtp_angle_r	hip_flexion_l	hip_adduction_l	hip_rotation_l	knee_angle_l	ankle_angle_l	subtalar_angle_l	mtp_angle_l	lumbar_extension	lumbar_bending	lumbar_rotation	arm_flex_r	arm_add_r	arm_rot_r	elbow_flex_r	pro_sup_r	wrist_flex_r	wrist_dev_r	arm_flex_l	arm_add_l	arm_rot_l	elbow_flex_l	pro_sup_l	wrist_flex_l	wrist_dev_l
0.42	-2.84006	1.33288	-1.71089	0.80313	-0.0676052	1.08956	-0.149992	-0.130048	-0.110708	1.0682	-0.65883	0	0	0.0313878	-0.0137385	-0.0879421	0.474943	-0.215413	0	0	-0.406348	0.00122427	0.0350414	0.617979	-0.363212	0.758842	1.06568	0.517301	0	0	0.190436	-0.579374	-0.00857636	1.16382	0.740749	0	0
0.43	-2.86056	1.33035	-1.68986	0.800166	-0.056554	1.0916	-0.129344	-0.12398	-0.0973003	1.09751	-0.660413	0	0	0.0185884	-0.0184653	-0.0893477	0.480726	-0.211066	0	0	-0.410726	0.00744706	0.0333807	0.621357	-0.36444	0.762578	1.06604	0.512575	0	0	0.189988	-0.579062	-0.00909646	1.16385	0.7389	0	0
0.44	-2.8806	1.32725	-1.6686	0.797296	-0.0456073	1.09357	-0.110237	-0.116797	-0.0848778	1.12567	-0.625627	0	0	0.00606486	-0.0235612	-0.0903219	0.486652	-0.206308	0	0	-0.415626	0.0137867	0.0307351	0.627116	-0.366443	0.77156	1.06655	0.50452	0	0	0.189146	-0.579765	-0.00979172	1.16462	0.736102	0	0
0.45	-2.89768	1.32284	-1.64921	0.794394	-0.0348185	1.09565	-0.0933868	-0.110005	-0.0751479	1.15067	-0.577414	0	0	-0.00796312	-0.0278273	-0.0898928	0.491129	-0.203894	0	0	-0.421748	0.0197228	0.0271762	0.633003	-0.368167	0.779943	1.06689	0.496309	0	0	0.189037	-0.581055	-0.00969539	1.1655	0.733662	0	0
0.46	-2.91042	1.31767	-1.63336	0.791429	-0.0240508	1.09786	-0.0779764	-0.104405	-0.0678646	1.17043	-0.536232	0	0	-0.0239452	-0.0309132	-0.0888517	0.493378	-0.202335	0	0	-0.428593	0.024826	0.0233992	0.637544	-0.369722	0.785512	1.06758	0.490056	0	0	0.189856	-0.582142	-0.00909412	1.16635	0.731736	0	0
0.47	-2.9212	1.31224	-1.6191	0.788526	-0.0131973	1.10007	-0.0635442	-0.0990664	-0.0613973	1.1845	-0.498805	0	0	-0.0410489	-0.0336008	-0.0876812	0.494698	-0.200365	0	0	-0.435487	0.0295822	0.0196489	0.641482	-0.371296	0.790421	1.0685	0.48401	0	0	0.19082	-0.583303	-0.00835584	1.16741	0.729343	0	0
0.48	-2.93163	1.30734	-1.60484	0.785684	-0.00227535	1.10217	-0.0491464	-0.0934517	-0.055709	1.1936	-0.462555	0	0	-0.0582288	-0.036368	-0.0863063	0.495026	-0.198002	0	0	-0.441571	0.0343131	0.0160876	0.64474	-0.372913	0.794781	1.06938	0.478542	0	0	0.191863	-0.584471	-0.00735454	1.16862	0.727018	0	0
0.49	-2.94347	1.30318	-1.58868	0.782862	0.00865646	1.10412	-0.0346977	-0.0871541	-0.0513454	1.19817	-0.426177	0	0	-0.075053	-0.0398684	-0.0849252	0.494401	-0.195438	0	0	-0.446666	0.0396919	0.0126021	0.647343	-0.374423	0.798238	1.07004	0.474561	0	0	0.193004	-0.585308	-0.00638612	1.16964	0.72568	0	0
0.5	-2.95754	1.29916	-1.56973	0.780034	0.0194649	1.10595	-0.0209606	-0.0800843	-0.0487198	1.19879	-0.383623	0	0	-0.0918093	-0.0443563	-0.0833751	0.493111	-0.192466	0	0	-0.451906	0.0461891	0.00875152	0.650503	-0.376076	0.802148	1.07086	0.469919	0	0	0.193933	-0.58614	-0.00589645	1.17106	0.724886	0	0
0.51	-2.97345	1.29612	-1.54909	0.777235	0.0301898	1.10762	-0.0065506	-0.0726815	-0.0474214	1.19494	-0.348495	0	0	-0.107421	-0.0495522	-0.081978	0.491295	-0.190154	0	0	-0.456132	0.0534621	0.00545972	0.652955	-0.377614	0.804631	1.07163	0.466975	0	0	0.195086	-0.586294	-0.00539638	1.17202	0.724399	0	0
0.52	-2.98885	1.29323	-1.5293	0.774524	0.0407339	1.10918	0.00759201	-0.0656337	-0.0472276	1.18698	-0.310421	0	0	-0.122884	-0.0545877	-0.0801315	0.488502	-0.187776	0	0	-0.460709	0.0607222	0.00239443	0.656289	-0.37934	0.807685	1.07266	0.46332	0	0	0.196458	-0.586074	-0.00564748	1.1732	0.723774	0	0
0.53	-3.00326	1.29151	-1.51133	0.771916	0.0512389	1.11053	0.0227486	-0.0593573	-0.0482812	1.17469	-0.281799	0	0	-0.136981	-0.0591634	-0.0782295	0.485588	-0.185908	0	0	-0.464037	0.0675231	0.000202355	0.659097	-0.381098	0.809802	1.07378	0.460789	0	0	0.198134	-0.585414	-0.00571198	1.17376	0.723747	0	0
0.54	-3.01548	1.29102	-1.49634	0.769439	0.0617358	1.11158	0.0391854	-0.0543927	-0.0503024	1.1588	-0.260199	0	0	-0.149692	-0.0627457	-0.0760593	0.482389	-0.184274	0	0	-0.466064	0.0733822	-0.00132877	0.661511	-0.382965	0.811454	1.0751	0.459155	0	0	0.199884	-0.5846	-0.00567359	1.174	0.723781	0	0
0.55	-3.02481	1.29141	-1.48484	0.767116	0.0722338	1.11239	0.0562768	-0.0505767	-0.0528108	1.13986	-0.241822	0	0	-0.161553	-0.0652739	-0.0739389	0.479048	-0.182547	0	0	-0.467294	0.0780806	-0.00243161	0.663616	-0.384784	0.812712	1.0766	0.457819	0	0	0.201722	-0.583699	-0.0057987	1.1741	0.724036	0	0
0.56	-3.0315	1.29253	-1.47646	0.764993	0.082788	1.11296	0.0736927	-0.0475324	-0.055573	1.11769	-0.229435	0	0	-0.17271	-0.067248	-0.0720584	0.47709	-0.180238	0	0	-0.467682	0.0814637	-0.00327956	0.664954	-0.385881	0.812798	1.07782	0.456967	0	0	0.203455	-0.583223	-0.00582749	1.17426	0.724628	0	0
0.57	-3.03696	1.29396	-1.46932	0.763024	0.0934073	1.11331	0.0905864	-0.0445807	-0.0586319	1.09265	-0.218164	0	0	-0.183552	-0.0689545	-0.0694295	0.475372	-0.176957	0	0	-0.467575	0.0842865	-0.00415705	0.665801	-0.386658	0.812004	1.07908	0.456115	0	0	0.205001	-0.582772	-0.00628078	1.17453	0.725228	0	0
0.58	-3.04111	1.29515	-1.46324	0.761161	0.104101	1.11344	0.105823	-0.041672	-0.0616675	1.06442	-0.206728	0	0	-0.194405	-0.0703363	-0.0665805	0.473216	-0.17377	0	0	-0.467476	0.086695	-0.00542345	0.666265	-0.387079	0.810652	1.08054	0.45508	0	0	0.206367	-0.582865	-0.00683925	1.17506	0.725943	0	0
0.59	-3.04421	1.29499	-1.45755	0.759351	0.114774	1.1135	0.118132	-0.0385681	-0.0651496	1.03355	-0.191532	0	0	-0.206873	-0.0718032	-0.0626901	0.470503	-0.169542	0	0	-0.468819	0.089145	-0.00723293	0.667418	-0.387771	0.810875	1.08269	0.454941	0	0	0.207873	-0.583441	-0.00751946	1.17608	0.727064	0	0
0.6	-3.0466	1.294	-1.45246	0.757632	0.12547	1.11344	0.128393	-0.0353727	-0.0683844	1.00054	-0.177882	0	0	-0.219933	-0.0737165	-0.0596108	0.469106	-0.165611	0	0	-0.47091	0.0914368	-0.00939517	0.669064	-0.388205	0.811664	1.08468	0.454776	0	0	0.209023	-0.584656	-0.00823109	1.17772	0.727409	0	0
0.61	-3.04815	1.29278	-1.44807	0.755985	0.136195	1.11323	0.137215	-0.0323867	-0.0712769	0.965425	-0.164867	0	0	-0.233064	-0.0756788	-0.056427	0.468089	-0.161713	0	0	-0.473411	0.0935675	-0.012044	0.670943	-0.388359	0.812159	1.0868	0.454498	0	0	0.209589	-0.586192	-0.00966022	1.17985	0.727678	0	0
0.62	-3.0492	1.29198	-1.44428	0.754429	0.146963	1.11286	0.145193	-0.0295892	-0.0732177	0.927781	-0.153042	0	0	-0.245314	-0.0775691	-0.0535644	0.467475	-0.158225	0	0	-0.47561	0.0954743	-0.014781	0.67242	-0.388106	0.811613	1.08896	0.453053	0	0	0.209691	-0.587707	-0.0116026	1.18224	0.727098	0	0
0.63	-3.05066	1.29165	-1.44039	0.752932	0.1578	1.11235	0.151973	-0.0266442	-0.0742182	0.887593	-0.14225	0	0	-0.25677	-0.0796554	-0.0515889	0.467144	-0.155186	0	0	-0.477322	0.0973031	-0.0172251	0.673325	-0.387683	0.810179	1.09121	0.450942	0	0	0.209566	-0.588787	-0.0140011	1.18453	0.726345	0	0
0.64	-3.05299	1.29141	-1.4357	0.751469	0.168695	1.11173	0.157276	-0.0236021	-0.0756113	0.845301	-0.132808	0	0	-0.268015	-0.0823235	-0.0498549	0.467294	-0.152227	0	0	-0.478816	0.0993284	-0.0193156	0.67476	-0.38792	0.810652	1.09364	0.451218	0	0	0.209609	-0.589522	-0.016249	1.18654	0.726151	0	0
